<svg xmlns="http://www.w3.org/2000/svg" xmlns:xlink="http://www.w3.org/1999/xlink" width="607.648" height="143.848" viewBox="0 0 607.648 143.848">
  <defs>
    <filter id="Path_1" x="0" y="0" width="607.648" height="143.848" filterUnits="userSpaceOnUse">
      <feOffset dy="3" input="SourceAlpha"/>
      <feGaussianBlur stdDeviation="3" result="blur"/>
      <feFlood flood-opacity="0.58"/>
      <feComposite operator="in" in2="blur"/>
      <feComposite in="SourceGraphic"/>
    </filter>
  </defs>
  <g id="Symbols" transform="translate(-234.001 -289)">
    <g id="Logo_Horizontal_White" data-name="Logo/Horizontal/White" transform="translate(243.001 295)">
      <g id="White_logo" data-name="White logo">
        <g transform="matrix(1, 0, 0, 1, -9, -6)" filter="url(#Path_1)">
          <path id="Path_1-2" data-name="Path 1" d="M583.6,94.568c.844,0,1.548-.141,1.548-.985S584.3,92.6,583.6,92.6H582.33v1.969Zm-.282,1.126h-.985v2.814H581.2V91.754h2.673c1.689,0,2.534.563,2.534,1.97a1.746,1.746,0,0,1-1.688,1.829l1.829,2.814h-1.408Zm4.925-.563a4.506,4.506,0,1,0-4.5,4.644A4.566,4.566,0,0,0,588.24,95.132Zm-4.5-6.05a5.91,5.91,0,1,1-5.912,5.909A5.771,5.771,0,0,1,583.738,89.082ZM109.064,56.572a39.194,39.194,0,0,1-7.037-.141c-8.865-1.689-1.268-11.68.7-15.621C106.25,44.047,110.331,51.365,109.064,56.572ZM83.733,79.23c-.14,1.547-.844,2.25-1.829,3.518a4.05,4.05,0,0,1-4.081-2.535c-.563-1.407,0-3.237.141-4.785.422-5.207.844-11.117,2.533-15.761,1.689,3.8,1.126,8.3,1.969,12.665C82.889,74.585,84.015,76.7,83.733,79.23ZM46.58,62.764c4.645,2.252,6.333,6.192,6.053,8.162a1.683,1.683,0,0,1-.424,1.126,3.759,3.759,0,0,1-2.532-.141C46.019,70.645,46.58,66.565,46.58,62.764ZM39.544,47.988c-.421.141-.984-.141-1.407-.281-5.065-2.111-2.954-5.348-.984-9.007C40.951,40.248,41.8,46.862,39.544,47.988ZM13.088,76.977c-3.94.846-6.755-3.659-4.925-6.894.7-1.407,1.97-1.972,3.235-2.675,1.549.141,2.957.281,4.083,1.268C18.717,71.208,17.027,76.133,13.088,76.977ZM125.248,66.423c-.7-3.8,3.1-7.036,1.267-10.836s-10.836-3.659-10.978-8.021c-.139-5.066,7.178-2.533,10.274-2.392,0-8.162-3.239-15.2-11.962-9.569-1.407,0-3.518-.281-4.221-1.548-2.674-4.785,5.347-5.911,5.629-9.71.141-2.252-2.674-3.659-3.519-5.488-.563-1.267,0-2.814,0-4.081,0-.563-.7-.563-1.127-.7-1.688-.422-3.235.563-4.926.141-1.828-.422-2.954-2.111-4.643-2.955,0,.7-1.266,1.548-1.548,2.111-1.267,1.689-5.629,7.74-8.443,5.207-1.126-.985-.846-2.814-.7-4.222C91.9,3.8,88.094,2.673,78.808,1.266,76.556.844,70.786-.423,68.253.281c0,1.829,2.25,14.354-1.829,13.791-4.785,0-2.253-12.525-9.147-14.073C56.151.422,54.6.563,53.9,1.688c-.986,1.407.985,5.911,1.407,7.6a11.461,11.461,0,0,1-.422,6.9v.281c-7.881,0-7.036-17.45-19.42-9.007,0,4.644,11.116,10.555,7.318,15.761a4.53,4.53,0,0,1-2.814,1.689c-5.77.7-8.164-12.243-14.917-10.977a3.331,3.331,0,0,0-2.533,1.97c-1.548,3.1,5.768,7.459,6.9,10.555.563,1.689,0,3.237-.141,4.785-5.629,0-12.245-8.021-17.45-2.955-.844.844-1.689,1.829-1.407,3.1.563,2.111,4.363,1.829,5.488,3.8,0,.141.141.141.141.281,1.97,4.5-2.535,7.881-2.674,11.962,0,1.97,1.547,3.237.843,5.488-2.111,7.459-9.427-.985-12.946,2.252-3.1,2.955.422,9.007.7,12.525C2.112,69.941.844,71.63.7,73.881c-.141,1.831,1.407,3.377,1.829,5.207.7,2.392,0,5.068,1.407,7.179,3.939,6.05,10.555-10.416,13.51-3.519,2.391,5.629-9.71,5.346-9.992,9.568s7.036,8.023,9.851,10.695a15.782,15.782,0,0,1,4.785,8.866c.281,3.378-1.267,6.9-2.111,9.992,1.265,0,2.111.563,3.518.141,6.191-1.829,9.709-11.68,8.725-17.732-.844-5.066-3.659-9.429-3.942-14.777-.28-5.206,4.786-14.072-.139-17.872-.281-.139-.422-.281-.7-.422,0,.563-1.126.7-1.829.7a4.123,4.123,0,0,1-2.674-.985c-1.126-.843-1.69-2.111-.844-3.377,1.126-1.687,4.5-1.407,4.925-3.8.844-5.207-9.993-6.192-3.377-12.525a6.7,6.7,0,0,1,4.785-1.97c3.1.281,10.412,2.392,9.992,6.333-.141,1.829-1.69,3.377-.987,5.348.7,2.111,3.66,1.829,4.5,3.8,1.124,2.674-1.126,4.5-.844,7.036,0,.563.281.844.844,1.267.985.7,2.674.985,3.235,2.111,1.407,3.1-2.25,6.755,2.535,8.444,0-2.111-.424-5.065,1.407-6.192,0,.563.984,1.266,1.407,1.689,1.548,2.392,2.252,4.644,5.348,5.489.141-4.643-2.533-8.444-2.533-8.585,2.252,0,3.659,2.955,6.192,2.252,2.392-.563.281-3.235-.283-4.363-1.547-3.095.7-5.629-.28-8.584-.985-3.1-9.147-5.207-11.682-7.6-.843-.844-1.687-2.111-1.265-3.377,1.548-4.785,7.177-1.97,11.116-3.1a10.3,10.3,0,0,0,4.5-3.237c1.828-1.97,3.1-5.348,1.97-8.022-.7-1.689-1.829-2.814-1.549-4.925,1.127-8.584,15.059-8.162,21.109-5.066,3.1,1.548,6.053,5.207,4.364,9.007-1.408,3.237-5.348,1.407-8.163,2.533-2.392,1.126-5.629,6.051-6.473,8.3-1.267,3.518,2.252,6.192,2.392,9.569.422,7.459-2.955,14.215-4.5,20.968-.283,1.267.844,2.955.141,4.081-1.127,1.831-3.238,1.127-5.066,1.831-1.407.561-1.97,1.546-3.237,2.39C60.091,90.206,57,91.05,56.714,94.568c1.689,0,2.815-.844,4.643-.985.283,0,.283.141.424.282v.282c-.424,3.1-2.814,5.77-1.407,9.008,2.252,0,2.674-5.067,6.333-3.8.422,0,.422,0,.422.423.7,2.392.985,4.362,2.392,6.473.28,0,1.548-.28,1.407-1.267-.141-2.251-.424-5.488.28-7.318,1.127-2.814,2.957-2.393,2.535-6.192.563,0,1.267-.983,1.829-1.125,4.5-1.549,5.207-4.08,10.836-3.94a8.958,8.958,0,0,1,3.94.7c.985,0,.561-1.547.281-2.674-1.97-6.613-4.5-13.088-4.5-20.687h1.126c0,.844,3.377,5.348,3.94,6.473.844,1.407,3.518,7.6,5.911,6.193,1.125-.7,1.829-8.444,2.392-10.274,2.393-6.473,9.148-7.881,13.087-1.689,3.8,5.911,1.408,18.3-3.379,22.939-1.828,1.69-4.5,1.829-6.332,3.377-1.829,1.689-.139,4.926-.562,7.177a10.457,10.457,0,0,1-3.236,5.629c-3.519,3.377-8.022,4.926-11.54,8.023-1.55,1.265-1.83,3.518-3.66,4.361s-4.08-.282-5.909.282c-1.407.844-2.674,1.69-4.081,2.533-2.533,1.268-6.614,3.518-8.021,3.94,0,5.347,12.947,2.533,15.621,1.126,1.829-.984,2.391-3.519,4.362-4.363s3.658,1.126,5.911.423c1.969-.7,3.8-2.252,5.629-3.519,3.376-2.251,7.037-4.221,10.133-6.894,1.126-.986,2.814-2.253,3.236-3.518.844-2.253-2.814-7.882,3.66-7.037,4.925.7,9.85-9.289,10.835-12.807.563-2.673,1.126-5.487,1.689-8.162.7-1.689,1.408-3.237,2.111-4.925C129.47,69.238,125.811,69.38,125.248,66.423ZM508.73,69.8l18.295-20.687L510.277,30.256h22.1l7.176,10.7,7.178-10.7H568.82L551.933,49.113,570.508,69.8H547.569L539.69,58.542,531.807,69.8ZM477.066,59.668c7.317,0,10.273-3.377,10.273-9.71,0-6.192-3.1-9.569-10.273-9.569s-10.415,3.377-10.415,9.569C466.651,56.291,469.749,59.668,477.066,59.668Zm0-31.1c20.406,0,29.271,6.755,29.271,21.391s-8.865,21.391-29.271,21.391-29.272-6.755-29.272-21.391C447.795,35.463,456.66,28.567,477.066,28.567ZM412.19,41.233c-6.472,0-9.851,3.94-9.851,9.007,0,5.207,2.957,9.007,9.851,9.007s9.851-3.377,9.851-9.007C422.182,44.61,419.225,41.233,412.19,41.233Zm10.555,24.346H422.6c-3.237,3.8-8.3,5.77-16.324,5.77-11.682,0-22.517-6.473-22.517-21.109S394.6,29.13,406.281,29.13c7.316,0,12.523,1.829,15.76,5.629h.142V16.324H440.2V69.8H422.744ZM358.291,51.787c-3.1.7-8.161,1.126-14.634,1.689-3.378.281-4.926,1.407-4.926,3.94,0,2.814,2.252,4.5,6.755,4.5,6.051,0,12.8-1.548,12.8-8.3Zm-36.025-9.569c1.126-5.488,3.376-8.725,7.879-10.836,4.364-1.97,10.977-2.815,20.548-2.815,18.435,0,25.753,4.081,25.753,15.9V63.608a10.849,10.849,0,0,0,1.689,6.192H359.559a15.142,15.142,0,0,1-.7-3.939c-4.082,3.8-10.132,5.487-19.844,5.487-12.1,0-19.841-3.237-19.841-13.369,0-7.177,5.065-11.821,18.576-12.384l15.2-.7c3.658-.281,4.785-1.126,4.785-3.237,0-2.674-3.238-3.8-8.443-3.8-4.081,0-8.3.7-9.148,4.5H322.266ZM275.4,30.256h17.449v7.6H293a20.5,20.5,0,0,1,16.887-8.725,41.723,41.723,0,0,1,5.909.422V45.736a34.213,34.213,0,0,0-9.005-1.407c-6.475,0-13.369,2.111-13.369,10.7V69.8H275.4ZM247.82,51.787c-3.095.7-8.161,1.126-14.634,1.689-3.378.281-4.926,1.407-4.926,3.94,0,2.814,2.252,4.5,6.755,4.5,6.052,0,12.8-1.548,12.8-8.3ZM211.8,42.218c1.126-5.488,3.378-8.725,7.879-10.836,4.364-1.97,10.978-2.815,20.548-2.815,18.435,0,25.753,4.081,25.753,15.9V63.608a10.849,10.849,0,0,0,1.689,6.192H249.088a15.14,15.14,0,0,1-.7-3.939c-4.082,3.8-10.132,5.487-19.842,5.487-12.1,0-19.843-3.237-19.843-13.369,0-7.177,5.066-11.821,18.576-12.384l15.2-.7c3.659-.281,4.785-1.126,4.785-3.237,0-2.674-3.236-3.8-8.443-3.8-4.081,0-8.3.7-9.147,4.5H211.8ZM175.628,59.246c6.473,0,9.851-3.94,9.851-9.007,0-5.207-2.955-9.007-9.851-9.007s-9.851,3.377-9.851,9.007C165.637,55.868,168.592,59.246,175.628,59.246Zm-28-28.99h17.45V34.9h.141c3.236-3.8,8.3-5.77,16.324-5.77,11.68,0,22.516,6.473,22.516,21.109s-10.836,21.109-22.516,21.109c-7.318,0-12.526-1.829-15.762-5.629h-.141V83.873H147.624ZM550.948,89.082H568.82v3.657H556.155v3.94h12.1V100.2h-12.1v4.364h12.806v3.658H550.948Zm-44.751,0h5.77l5.629,14.634,5.629-14.634h5.768l-8.866,19.137H514.64Zm-27.442,19.139h5.206V89.082h-5.206ZM443.573,92.739h-7.178V89.082h19.42v3.657h-7.176v15.48h-5.208V92.739Zm-34.337,3.518c-.423-2.814-2.815-4.08-5.49-4.08-4.926,0-6.052,3.8-6.052,6.473s.987,6.473,6.052,6.473c2.534,0,4.925-1.265,5.49-4.221h5.629c-.7,5.629-5.209,7.882-11.4,7.882-7.037,0-11.4-2.957-11.4-10.134s4.364-10.133,11.4-10.133c4.644,0,10.555,1.126,11.258,7.74Zm-50.242-3.1-2.954,7.6h6.052Zm4.5,11.117h-8.866l-1.549,3.94h-5.629L355.9,89.082h6.333l8.443,19.137h-5.629Zm-52.491-6.753H317.9a2.391,2.391,0,0,0,2.534-2.394c0-1.97-1.549-2.393-2.815-2.393h-6.614ZM305.8,89.082h13.932c5.347,0,6.191,3.235,6.191,5.2a4.462,4.462,0,0,1-3.1,4.646c2.253.28,2.675,3.235,2.675,5.065,0,.985.139,3.237.985,4.222h-5.629a7.517,7.517,0,0,1-.565-3.658c0-2.674-1.124-3.379-2.814-3.379h-6.472v7.037H305.8Zm-41.8,0h17.874v3.657H269.212v3.94h12.1V100.2h-12.1v4.364h12.806v3.658H264Zm-35.04,3.657h-7.178V89.082h19.421v3.657H234.03v15.48h-5.208V92.739Zm-35.041-3.657h5.066v19.137H193.36L182.946,94.85v13.369H177.88V89.082h6.052l10.133,13.369V89.082ZM147.9,108.221h5.207V89.082H147.9Z" transform="translate(9 6)" fill="#fff" fill-rule="evenodd"/>
        </g>
      </g>
    </g>
  </g>
</svg>
