<svg xmlns="http://www.w3.org/2000/svg" width="90.2" height="90.2" viewBox="0 0 90.2 90.2">
  <path id="emoji-happy" d="M45.5.4A45.1,45.1,0,1,0,90.6,45.5,45.1,45.1,0,0,0,45.5.4Zm0,80.8A35.7,35.7,0,1,1,81.209,45.5,35.7,35.7,0,0,1,45.5,81.2ZM33.76,44.326c3.89,0,7.042-3.678,7.042-8.221s-3.157-8.221-7.047-8.221-7.047,3.678-7.047,8.221S29.865,44.326,33.76,44.326Zm23.485,0c3.895,0,7.047-3.678,7.047-8.221s-3.157-8.221-7.047-8.221S50.2,31.566,50.2,36.1,53.355,44.326,57.245,44.326Zm8.649,7.451a3.554,3.554,0,0,0-4.736,1.5c-.16.31-4.082,7.484-15.653,7.484-11.515,0-15.461-7.108-15.658-7.479a3.526,3.526,0,0,0-6.291,3.185c.235.465,5.863,11.341,21.949,11.341S67.214,56.93,67.444,56.465A3.5,3.5,0,0,0,65.894,51.776Z" transform="translate(-0.4 -0.4)" fill="#5abe41"/>
</svg>
